PathFileType	4	(X/Y/Z)	S01_0009_Gait_markers.trc
DataRate	CameraRate	NumFrames	NumMarkers	Units	OrigDataRate	OrigDataStartFrame	OrigNumFrames
250.000000	250.000000	4	54	mm	250.000000	300	343
Frame#	Time	HEAD_ANT			R_HEAD			L_HEAD			C7			R_BACK			L_BACK			STERNUM			R_ACROMION			R_HUM_PROX			R_HUM_ANT			R_HUM_POST			R_ELBOW_LAT			R_ELBOW_MED			R_FOREARM			R_WIRST_LAT			R_WRITS_MED			R_HAND			L_ACROMION			L_HUM_PROX			L_HUM_ANT			L_HUM_POST			L_ELBOW_LAT			L_ELBOW_MED			L_FOREARM			L_WRIST_LAT			L_WIRST_MED			L_HAND			R_ILIAC			SACRUM			L_ILIAC			R_GTROCH			R_THIGH__1			R_THIGH_2			R_THIGH_3			R_THIGH_4			R_SHANK_1			R_SHANK_2			R_SHANK_3			R_SHANK_4			R_HEEL			R_FOOT_LAT			R_FOOT_MED			L_GTROCH			L_THIGH_1			L_THIGH_2			L_THIGH_3			L_THIGH_4			L_SHANK_1			L_SHANK_2			L_SHANK_3			L_SHANK_4			L_HEEL			L_FOOT_LAT			L_FOOT_MED			
		X1	Y1	Z1	X2	Y2	Z2	X3	Y3	Z3	X4	Y4	Z4	X5	Y5	Z5	X6	Y6	Z6	X7	Y7	Z7	X8	Y8	Z8	X9	Y9	Z9	X10	Y10	Z10	X11	Y11	Z11	X12	Y12	Z12	X13	Y13	Z13	X14	Y14	Z14	X15	Y15	Z15	X16	Y16	Z16	X17	Y17	Z17	X18	Y18	Z18	X19	Y19	Z19	X20	Y20	Z20	X21	Y21	Z21	X22	Y22	Z22	X23	Y23	Z23	X24	Y24	Z24	X25	Y25	Z25	X26	Y26	Z26	X27	Y27	Z27	X28	Y28	Z28	X29	Y29	Z29	X30	Y30	Z30	X31	Y31	Z31	X32	Y32	Z32	X33	Y33	Z33	X34	Y34	Z34	X35	Y35	Z35	X36	Y36	Z36	X37	Y37	Z37	X38	Y38	Z38	X39	Y39	Z39	X40	Y40	Z40	X41	Y41	Z41	X42	Y42	Z42	X43	Y43	Z43	X44	Y44	Z44	X45	Y45	Z45	X46	Y46	Z46	X47	Y47	Z47	X48	Y48	Z48	X49	Y49	Z49	X50	Y50	Z50	X51	Y51	Z51	X52	Y52	Z52	X53	Y53	Z53	X54	Y54	Z54	

301	1.2	1835.358642578125	1714.564697265625	-298.1876831054684	1774.202758789062	1661.234985351562	-223.8247375488278	1780.714965820312	1663.3408203125	-370.3739318847653	1642.51708984375	1490.886840820312	-301.4828796386715	1574.123046875	1289.821411132812	-241.0780944824216	1574.039306640625	1297.62255859375	-379.1630554199216	1824.850219726562	1329.942138671875	-295.6458740234372	1710.8984375	1442.594970703125	-126.334548950195	1658.363037109375	1284.414916992188	-38.80726623535128	1716.332885742188	1197.600952148438	-24.02584075927708	1594.931884765625	1203.378540039062	-31.5553016662595	1638.560546875	1095.649658203125	-15.9494943618772	1621.598876953125	1090.876342773438	-96.42058563232398	1715.015258789062	905.9005126953125	7.674386024475298	1754.532592773438	832.2233276367188	-24.51901245117169	1676.41259765625	820.0440673828125	-1.102163791656312	1729.47216796875	746.8905029296875	34.80166244506852	1730.45361328125	1445.63232421875	-465.1951293945309	1725.517578125	1281.804077148438	-562.4847412109372	1795.865478515625	1207.532958984375	-559.415588378906	1676.74072265625	1199.847778320313	-594.6463623046873	1746.47021484375	1101.853271484375	-601.6604003906248	1693.181396484375	1085.12841796875	-545.087707519531	1892.0791015625	960.4377441406251	-563.711975097656	1931.747436523438	914.4089965820314	-506.8206481933591	1902.80126953125	875.4739990234376	-567.8007812499998	1993.615966796875	853.3899536132814	-548.202697753906	1722.301513671875	1040.649047851562	-135.5126800537107	1596.847412109375	1012.835693359375	-301.2220764160154	1712.2265625	1039.6064453125	-479.9992980957029	1696.497192382812	891.3582153320312	-123.3140640258787	1821.9091796875	627.9781494140625	-143.5813140869139	1868.720581054688	663.2313232421875	-137.153839111328	1909.873413085938	571.373291015625	-176.2877349853514	1847.380249023438	552.9056396484375	-168.1328582763671	1909.34033203125	336.3526306152344	-162.0794067382812	1968.1630859375	334.5383605957032	-177.1285247802734	1991.597412109375	253.1123504638672	-194.9309387207031	1928.91552734375	238.5243377685547	-184.0028228759765	1962.375732421875	27.90534210205084	-270.4806213378906	2123.0302734375	51.56871795654301	-184.0046234130859	2166.975830078125	89.16938781738287	-269.5435791015625	1668.499755859375	935.8092651367189	-482.3392333984373	1670.558471679688	644.4740600585939	-469.6880493164061	1624.971313476562	679.3323364257814	-483.353546142578	1582.017456054688	587.4815063476564	-453.5905151367186	1643.003295898438	570.5944824218751	-445.0922241210936	1485.946533203125	332.8540649414064	-435.1007080078124	1425.978393554688	340.8675231933595	-440.4643554687499	1382.8388671875	267.0536499023439	-421.7279052734374	1441.395385742188	243.4356384277345	-411.4492492675781	1256.681030273438	123.1762695312501	-349.8076477050781	1405.254760742188	21.016794204712	-407.104248046875	1442.104248046875	28.45168495178229	-302.2079772949219	
302	1.204	1841.306884765625	1714.156372070312	-297.4029541015621	1780.067993164062	1660.863037109375	-223.1119537353512	1786.530883789062	1663.010620117188	-369.6572570800778	1648.44873046875	1490.380615234375	-300.7670593261715	1580.78173828125	1289.068603515625	-240.5945892333982	1580.132568359375	1297.188842773438	-378.4682006835935	1830.980590820312	1329.563720703125	-295.0686035156247	1717.038208007812	1442.12890625	-125.699668884277	1664.585327148438	1283.740844726562	-38.48454666137667	1722.673950195312	1196.942626953125	-23.74500846862766	1601.29345703125	1202.701782226562	-31.11259841918919	1645.096069335938	1094.832763671875	-15.75725364685034	1627.847900390625	1090.355590820312	-96.17662811279273	1721.5810546875	905.1265258789062	7.504457950592242	1761.31005859375	831.6432495117188	-24.86119079589825	1683.089477539062	819.3233642578125	-1.42898106574994	1736.074829101562	746.2587890625	34.4752044677736	1736.614379882812	1445.332763671875	-464.5064697265622	1731.298583984375	1281.430053710938	-561.7862548828122	1801.528564453125	1207.217529296875	-558.9006347656248	1682.514770507812	1199.402954101563	-593.5416259765623	1752.146850585938	1101.261596679688	-600.9176635742185	1698.738159179688	1084.827392578125	-544.0919189453123	1897.235107421875	959.6676635742189	-563.6007690429685	1937.042724609375	913.4756469726564	-506.7885131835935	1907.698608398438	874.6886596679689	-567.785217285156	1998.450317382812	852.3240356445314	-548.6418457031248	1728.633911132812	1040.523315429688	-134.8936767578123	1603.410400390625	1012.457702636719	-300.9839782714841	1718.940307617188	1039.300048828125	-479.8150329589841	1703.465454101562	891.1643676757812	-123.3468170166014	1828.928833007812	627.9334106445312	-144.456573486328	1875.880737304688	662.9835815429688	-137.8036651611327	1916.752807617188	571.0064086914062	-177.0433044433593	1854.390625	552.9281005859375	-168.1993865966796	1914.611450195312	335.8445129394532	-162.6532135009765	1973.209716796875	333.0794067382813	-178.1472778320312	1995.60693359375	251.459945678711	-196.1915740966796	1932.848754882812	237.8274993896485	-184.7564849853515	1963.316650390625	28.56277465820319	-271.446533203125	2123.737060546875	48.50567626953129	-184.9019165039062	2169.156494140625	84.59165191650396	-270.585205078125	1675.267578125	935.2233276367189	-482.0514221191404	1677.281005859375	643.7958984375001	-469.5591430664061	1631.651611328125	679.1777343750001	-483.0924377441405	1588.759521484375	586.8803100585939	-453.5135498046874	1649.574584960938	569.8659057617189	-445.2587890624999	1490.8251953125	332.995819091797	-435.6524047851562	1431.049682617188	341.9826965332032	-440.9313659667968	1386.993408203125	268.9005737304689	-422.5070495605468	1445.478759765625	244.6847381591798	-412.3611145019531	1258.878173828125	126.4021453857423	-350.8055725097656	1405.542724609375	21.29476165771493	-407.2566223144531	1442.254272460938	28.60490608215339	-302.4251098632812	
303	1.208	1847.113403320312	1713.89306640625	-296.5709838867184	1785.873168945312	1660.460205078125	-222.3547668457028	1792.50390625	1662.662963867188	-368.7870483398434	1654.427124023438	1489.968017578125	-300.057464599609	1587.380493164062	1288.41943359375	-239.9114074707028	1586.480102539062	1296.6552734375	-378.0199584960935	1834.801147460938	1328.553588867188	-291.1278381347653	1723.16748046875	1441.687622070312	-125.1007461547848	1670.855834960938	1283.110107421875	-37.7647171020505	1729.051635742188	1196.316528320312	-23.50313568115208	1607.600952148438	1202.052368164062	-30.78242874145481	1651.64501953125	1094.25146484375	-15.46086883544898	1634.396484375	1089.8896484375	-96.00428009033179	1728.300048828125	904.61328125	7.387301921844683	1767.874267578125	832.3629760742188	-23.7035541534422	1689.89990234375	818.6807861328125	-1.80993068218213	1742.805786132812	745.5963745117188	34.10559463500993	1742.448120117188	1444.93701171875	-463.7880859374997	1737.002807617188	1281.110473632813	-561.0726928710934	1807.350463867188	1206.794677734375	-558.5758666992185	1687.757690429688	1199.075073242188	-592.5951538085935	1757.334838867188	1100.9130859375	-600.1655273437498	1702.678466796875	1085.0517578125	-544.4603881835935	1902.4326171875	958.8942260742189	-563.487121582031	1942.219482421875	912.5078125000001	-506.7568664550779	1912.5888671875	873.8713378906251	-567.6457519531248	2003.349609375	851.2227783203126	-549.017395019531	1734.668090820312	1040.324462890625	-134.630432128906	1609.999633789062	1012.144897460938	-300.8102416992185	1725.724243164062	1039.014282226562	-479.6360778808591	1710.584594726562	890.8211059570312	-123.0782699584959	1835.632202148438	627.6682739257812	-145.1177978515624	1882.89599609375	662.841796875	-138.4401702880858	1923.361694335938	570.5184326171875	-177.7912139892577	1860.962524414062	552.7424926757812	-168.8002471923827	1919.665771484375	335.4869384765626	-163.5496978759765	1978.198974609375	332.2299499511719	-179.2991180419921	1999.65380859375	250.3347167968751	-197.1429748535156	1936.7861328125	237.2387847900391	-185.4752502441406	1964.811157226562	30.21483612060553	-271.7713012695312	2125.236328125	44.31906127929692	-185.6707916259766	2172.42529296875	79.23219299316412	-271.8585205078125	1681.9287109375	934.6917114257814	-481.7123718261716	1684.28076171875	643.2963867187501	-469.1130371093748	1638.995727539062	678.7881469726564	-482.9759216308592	1595.684814453125	586.1749267578126	-453.5872497558593	1656.699829101562	569.3159179687501	-445.2242431640624	1495.849609375	333.3927612304689	-435.9958496093749	1436.0478515625	342.9368591308595	-441.7373962402343	1390.957763671875	269.8216857910157	-422.8814392089843	1448.907958984375	244.5887603759766	-412.0502624511718	1261.4228515625	130.0170898437501	-351.7911682128906	1405.918579101562	21.59077644348153	-407.4612121582031	1442.37548828125	28.86470985412604	-302.5116577148438	
304	1.212	1853.071166992188	1713.738159179688	-295.8607177734371	1791.679565429688	1660.1318359375	-221.5775146484371	1798.355102539062	1662.458984375	-368.0072937011715	1660.427490234375	1489.57861328125	-299.6451721191403	1593.419677734375	1288.048217773438	-239.4250030517575	1592.798828125	1296.300659179688	-377.3224182128903	1843.61328125	1329.19873046875	-293.7142333984372	1729.317504882812	1441.304443359375	-124.3113937377926	1677.297241210938	1282.4072265625	-37.27866744995089	1735.5537109375	1195.752807617188	-23.09884452819798	1614.052001953125	1201.390991210938	-30.28123283386204	1658.105102539062	1093.485717773438	-15.71376228332495	1640.831787109375	1089.104370117188	-95.96765136718726	1735.03271484375	904.0617065429688	7.29289722442647	1774.640258789062	831.8909301757812	-24.03413391113263	1696.88427734375	818.078369140625	-2.006528377532777	1749.842163085938	745.1641235351562	33.94573974609391	1748.532592773438	1444.69140625	-463.1061401367184	1742.782836914062	1280.85986328125	-560.4801635742184	1813.044311523438	1206.557006835938	-557.974670410156	1693.3681640625	1198.819946289063	-591.856506347656	1762.6533203125	1100.678100585938	-599.366760253906	1708.160888671875	1084.860473632813	-543.4947509765623	1907.527954101562	958.0512695312501	-563.3439941406248	1947.394409179688	911.5377807617189	-507.0098876953123	1917.315307617188	872.9655151367189	-567.6433105468748	2008.061279296875	850.1191406250001	-549.4851074218748	1741.3017578125	1040.213745117188	-134.0993499755857	1616.525756835938	1012.102172851563	-300.7838134765623	1732.45068359375	1038.672973632812	-479.502990722656	1717.847900390625	890.4862670898438	-122.6246261596678	1842.325073242188	628.1575927734375	-145.2068786621092	1889.881713867188	662.9105224609375	-139.470001220703	1929.662963867188	570.2152099609375	-178.4627227783202	1867.218017578125	552.4732055664062	-169.5157775878905	1924.614013671875	335.5754699707032	-164.3345947265624	1983.135131835938	332.0494079589844	-180.2924804687499	2003.227783203125	249.5385437011719	-197.8758544921874	1940.804077148438	237.1153869628907	-186.5143127441406	1966.617919921875	31.39280319213873	-271.8038940429688	2127.448974609375	40.69892501831059	-186.6906280517578	2175.845947265625	73.99171447753912	-273.2558898925781	1688.622314453125	934.1917114257814	-481.4589233398435	1691.600830078125	643.3062744140626	-468.8580017089842	1646.129760742188	678.2064208984376	-482.6613464355467	1602.755737304688	585.5831298828126	-453.5498046874999	1663.91552734375	568.6907958984376	-445.2098388671874	1501.144165039062	333.650848388672	-436.5787353515624	1441.550903320312	343.8496093750001	-442.2543945312499	1395.612670898438	271.8029785156251	-423.7830505371093	1453.264038085938	245.9512329101563	-413.0001525878906	1264.091064453125	133.6607360839845	-352.6594543457031	1406.294311523438	21.9081745147706	-407.5545349121094	1441.21875	28.46823883056647	-302.3499145507812	
